<svg xmlns="http://www.w3.org/2000/svg" viewBox="0 0 512 512"><circle cx="256" cy="256" r="256" fill="#21d0c3"/><path d="M109.052 191.484c32.355 0 58.583 26.804 58.583 59.87 0 46.311-29.8 28.855-29.8 79.605 0 3.274-2.615 5.948-5.822 5.948H89.069c-3.21 0-5.823-2.675-5.823-5.948 0-49.93-32.778-29.957-32.778-79.605-.001-33.066 26.229-59.87 58.584-59.87z" fill="#fff"/><path d="M90.198 336.907h40.689v21.346c0 3.211-2.626 5.836-5.838 5.836H96.033c-3.211 0-5.836-2.625-5.836-5.836v-21.346z" fill="#0f7986"/><path d="M89.509 260.433c1.563 0 2.829 1.625 2.829 2.827 0 1.203-.369 1.601-.956 2.12l9.451 27.301.065.185v44.039h-2.164v-43.708l-9.386-27.114a2.81 2.81 0 0 1-2.667-2.824c.001-1.534 1.266-2.827 2.828-2.826zm39.084 0c-1.562 0-2.827 1.625-2.827 2.827 0 1.203.369 1.601.956 2.12l-9.452 27.301-.064.185v44.039h2.164v-43.708l9.386-27.114a2.81 2.81 0 0 0 2.667-2.824c-.001-1.534-1.266-2.827-2.83-2.826z" fill="#ecf0f1"/><path d="M111.671 254.694l-2.948 3.555 19.427-.932-24.162 5.354 1.283-4.36-11.896-.004 18.296-3.613z" fill="#dce3db"/><path d="M402.95 191.484c32.355 0 58.583 26.804 58.583 59.87 0 46.311-29.801 28.855-29.801 79.605 0 3.274-2.613 5.948-5.822 5.948h-42.943c-3.211 0-5.823-2.675-5.823-5.948 0-49.93-32.778-29.957-32.778-79.605-.001-33.066 26.228-59.87 58.584-59.87z" fill="#fff"/><path d="M384.096 336.907h40.688v21.346c0 3.211-2.625 5.836-5.836 5.836h-29.015c-3.211 0-5.836-2.625-5.836-5.836l-.001-21.346z" fill="#0f7986"/><path d="M383.407 260.433c1.562 0 2.827 1.625 2.827 2.827 0 1.203-.369 1.601-.955 2.12l9.451 27.301.064.185v44.039h-2.164v-43.708l-9.386-27.114a2.81 2.81 0 0 1-2.667-2.824c.001-1.534 1.267-2.827 2.83-2.826zm39.084 0c-1.562 0-2.827 1.625-2.827 2.827 0 1.203.369 1.601.955 2.12l-9.451 27.301-.064.185v44.039h2.163v-43.708l9.387-27.114a2.807 2.807 0 0 0 2.665-2.824c0-1.534-1.266-2.827-2.828-2.826z" fill="#ecf0f1"/><path d="M405.568 254.694l-2.947 3.555 19.427-.932-24.163 5.354 1.283-4.36-11.896-.004 18.296-3.613z" fill="#dce3db"/><path d="M256.003 67.881c67.722 0 122.621 56.105 122.621 125.318 0 96.934-62.376 60.395-62.376 166.622 0 6.854-5.471 12.45-12.186 12.45h-89.888c-6.718 0-12.187-5.597-12.187-12.45 0-104.512-68.608-62.704-68.608-166.622-.001-69.212 54.899-125.318 122.624-125.318z" fill="#fad24d"/><path d="M216.538 372.272H301.7v34.698c0 6.72-5.497 12.218-12.215 12.218h-60.729c-6.719 0-12.217-5.496-12.217-12.218v-34.698z" fill="#0f7986"/><g fill="#edb937"><path d="M378.286 204.878c-1.78 14.385-9.305 39.769-38.423 62.96-43.742 34.837-28.031 83.49-33.097 93.962-4.908 10.143-36.997 10.462-38.996 10.471h36.291c6.714 0 12.186-5.596 12.186-12.452 0-101.695 57.162-72.561 62.039-154.941z"/><path d="M215.098 212.201c3.27 0 5.919 3.402 5.919 5.919 0 2.519-.772 3.352-2 4.437l19.782 57.145.133.386v92.182h-4.529v-91.486l-19.646-56.752c-3.114-.177-5.58-2.698-5.58-5.911 0-3.214 2.65-5.92 5.921-5.92zm81.808 0c-3.27 0-5.919 3.402-5.919 5.919 0 2.519.772 3.352 1.999 4.437l-19.78 57.145-.133.386v92.182h4.529v-91.486l19.646-56.752c3.114-.177 5.58-2.698 5.58-5.911 0-3.214-2.652-5.92-5.922-5.92z"/></g><path d="M261.871 198.887l-8.416 10.56 59.431-5.599-73.177 18.9 3.164-12.601-36.493 1.793 55.491-13.053z" fill="#fff"/><path d="M291.318 419.188c0 2.843-3.817 5.41-9.947 7.232v1.929c0 2.088-1.786 3.795-3.973 3.795h-.001c-2.187 0-3.975-1.707-3.975-3.795v-.196c-4.311.665-9.166 1.039-14.304 1.039s-9.993-.373-14.304-1.039v.196c0 2.088-1.789 3.795-3.975 3.795h-.001c-2.187 0-3.973-1.707-3.973-3.795v-1.929c-6.13-1.821-9.947-4.388-9.947-7.232h64.4z" fill="#ecf0f1"/><path d="M216.538 394.262H301.7v2.61h-85.162v-2.61zm0-14.363H301.7v2.61h-85.162v-2.61zm0 6.525H301.7v2.609h-85.162v-2.609zm0 14.363H301.7v2.61h-85.162v-2.61z" fill="#076673"/><path d="M124.895 364.088c0 1.279-1.717 2.433-4.472 3.253v.867c0 .939-.803 1.707-1.787 1.707h-.001c-.983 0-1.787-.768-1.787-1.707v-.087a42.766 42.766 0 0 1-6.432.467c-2.31 0-4.493-.169-6.432-.467v.087c0 .939-.803 1.707-1.787 1.707h-.001c-.983 0-1.787-.768-1.787-1.707v-.867c-2.756-.819-4.472-1.973-4.472-3.253h28.958zm293.879 0c0 1.279-1.717 2.433-4.472 3.253v.867c0 .939-.803 1.707-1.787 1.707h-.001c-.983 0-1.786-.768-1.786-1.707v-.087c-1.939.298-4.122.467-6.432.467s-4.493-.169-6.432-.467v.087c0 .939-.803 1.707-1.787 1.707h-.001c-.983 0-1.786-.768-1.786-1.707v-.867c-2.756-.819-4.472-1.973-4.472-3.253h28.956z" fill="#dce3db"/><path d="M90.198 350.54h40.689v1.339H90.198v-1.339zm0-7.37h40.689v1.339H90.198v-1.339zm0 3.347h40.689v1.339H90.198v-1.339zm0 7.373h40.689v1.339H90.198v-1.339zm293.897-3.35h40.689v1.339h-40.689v-1.339zm0-7.37h40.689v1.339h-40.689v-1.339zm0 3.347h40.689v1.339h-40.689v-1.339zm0 7.373h40.689v1.339h-40.689v-1.339z" fill="#076673"/></svg>