<svg xmlns="http://www.w3.org/2000/svg" viewBox="0 0 512 512"><circle cx="256" cy="256" r="256" fill="#ecf0f1"/><circle cx="256" cy="256" r="256" fill="#0f7986"/><ellipse cx="256" cy="421.646" rx="182.284" ry="14.369" fill="#076673"/><path d="M65.979 67.222h380.037c12.485 0 22.702 10.217 22.702 22.702V324.03H43.282V89.922c0-12.485 10.217-22.702 22.702-22.702l-.005.002z" fill="#666"/><path d="M58.695 308.617h394.609V89.927c0-3.977-3.308-7.289-7.284-7.289H65.984c-3.977 0-7.284 3.307-7.284 7.289v218.69h-.005z" fill="#21d0c3"/><path d="M468.718 324.03v24.826c0 12.49-11.261 22.702-25.024 22.702H68.307c-13.764 0-25.024-10.212-25.024-22.702V324.03h425.435zM141.237 115.529h263.69c4.143 0 7.528 3.39 7.528 7.528v185.56H99.544V123.058c0-4.143 3.385-7.528 7.528-7.528l34.165-.001z" fill="#fff"/><path d="M107.072 115.529h297.855c4.143 0 7.528 3.385 7.528 7.528v15.053H99.544v-15.053c0-4.142 3.385-7.528 7.528-7.528z" fill="#828282"/><path d="M226.385 123.326h163.62c1.113 0 2.023.914 2.023 2.023v3.751c0 1.109-.91 2.023-2.023 2.023h-163.62a2.027 2.027 0 0 1-2.018-2.023v-3.751a2.026 2.026 0 0 1 2.018-2.023z" fill="#fff"/><path d="M117.335 121.982a4.334 4.334 0 0 1 0 8.666 4.334 4.334 0 1 1 0-8.666z" fill="#21d0c3"/><path d="M134.438 121.982a4.333 4.333 0 1 1 0 8.666 4.333 4.333 0 0 1 0-8.666z" fill="#fad24d"/><path d="M151.551 121.982a4.334 4.334 0 0 1 0 8.666 4.332 4.332 0 1 1 0-8.666z" fill="#ff5b62"/><path d="M258.707 200.261c11.052 1.87 16.074 12.411 15.949 22.47l107.331-.933c2.928-.028 5.363 1.469 5.363 3.266 0 1.793-2.429 2.993-5.363 3.266l-111.193 10.425c-3.556 5.085-8.868 8.314-14.794 8.314-5.93 0-11.237-3.224-14.794-8.309l-111.197-10.425c-2.905-.272-5.358-1.473-5.358-3.266 0-1.796 2.415-3.289 5.358-3.266l107.331.933c-.383-9.889 4.9-20.6 15.949-22.47l.106-4.064h-32.789c-1.16 0-2.102-1.035-2.102-2.3 0-1.266.942-2.301 2.102-2.301h32.914l.494-18.969c.051-1.824.485-3.317 1.986-3.317 1.496 0 1.935 1.496 1.986 3.317l.499 18.969h32.914c1.155 0 2.097 1.035 2.097 2.301 0 1.266-.942 2.3-2.097 2.3H258.61l.102 4.064-.005-.005zm-59.079 36.691c4.508 0 8.166 4.004 8.166 8.938 0 4.937-3.658 8.938-8.166 8.938s-8.166-4-8.166-8.938c0-4.934 3.658-8.938 8.166-8.938zm112.744 0c4.508 0 8.166 4.004 8.166 8.938 0 4.937-3.658 8.938-8.166 8.938-4.508 0-8.171-4-8.171-8.938.001-4.934 3.663-8.938 8.171-8.938zm0 5.011c1.981 0 3.589 1.76 3.589 3.926 0 2.171-1.603 3.93-3.589 3.93-1.981 0-3.589-1.76-3.589-3.93 0-2.166 1.608-3.926 3.589-3.926zm-112.744 0c1.981 0 3.589 1.76 3.589 3.926 0 2.171-1.603 3.93-3.589 3.93-1.981 0-3.589-1.76-3.589-3.93 0-2.166 1.607-3.926 3.589-3.926z" fill="#fad24d"/><circle cx="256" cy="346.803" r="7.815" fill="#b6b6b8"/><path d="M305.065 407.27l36.096 11.565H170.839l29.121-11.565v-35.712h105.105v35.712z" fill="#c2c2c4"/><path d="M305.065 407.27L199.96 371.557h105.105v35.713z" fill="#b0b0b0"/><path d="M199.96 407.27h105.105l36.096 11.565v4.983H170.834v-4.983l29.121-11.565h.005z" fill="#ecf0f1"/></svg>